<?xml version="1.0" encoding="UTF-8"?><svg id="Layer_1" xmlns="http://www.w3.org/2000/svg" width="839.68" height="839.68" viewBox="0 0 839.68 839.68"><path d="M419.84,0C187.97,0,0,187.97,0,419.84s187.97,419.84,419.84,419.84,419.84-187.97,419.84-419.84S651.71,0,419.84,0ZM725.38,625.79c-13.19,19.52-28.33,37.88-45.02,54.56-16.69,16.69-35.04,31.83-54.56,45.02-19.69,13.31-40.74,24.73-62.56,33.96-45.39,19.2-93.64,28.93-143.4,28.93s-98.01-9.73-143.4-28.93c-21.82-9.23-42.87-20.66-62.56-33.96-19.52-13.19-37.88-28.33-54.56-45.02-16.69-16.69-31.83-35.04-45.02-54.56-13.31-19.69-24.73-40.74-33.96-62.56-19.2-45.39-28.93-93.64-28.93-143.4s9.73-98.01,28.93-143.4c9.23-21.82,20.66-42.87,33.96-62.56,13.19-19.52,28.33-37.88,45.02-54.56,16.69-16.69,35.04-31.83,54.56-45.02,19.69-13.31,40.74-24.73,62.56-33.96,45.39-19.2,93.64-28.93,143.4-28.93h0c49.76,0,98.01,9.73,143.4,28.93,21.82,9.23,42.87,20.66,62.56,33.96,19.52,13.19,37.88,28.33,54.56,45.02,16.69,16.69,31.83,35.04,45.02,54.56,13.31,19.69,24.73,40.74,33.96,62.56,19.2,45.39,28.93,93.64,28.93,143.4s-9.73,98.01-28.93,143.4c-9.23,21.82-20.66,42.87-33.96,62.56ZM209.31,440.89c-44.21,0-80.17,35.96-80.17,80.17s35.97,80.17,80.17,80.17,80.17-35.96,80.17-80.17-35.96-80.17-80.17-80.17ZM209.31,583.07c-34.19,0-62.01-27.82-62.01-62.01s27.82-62.01,62.01-62.01,62.01,27.82,62.01,62.01-27.82,62.01-62.01,62.01ZM419.84,440.89c-44.21,0-80.17,35.96-80.17,80.17s35.97,80.17,80.17,80.17,80.17-35.96,80.17-80.17-35.96-80.17-80.17-80.17ZM419.84,583.07c-34.19,0-62.01-27.82-62.01-62.01s27.82-62.01,62.01-62.01,62.01,27.82,62.01,62.01-27.82,62.01-62.01,62.01ZM419.84,601.23h0,0ZM630.37,440.89c-44.21,0-80.17,35.96-80.17,80.17s35.97,80.17,80.17,80.17,80.17-35.96,80.17-80.17-35.96-80.17-80.17-80.17ZM630.37,583.07c-34.19,0-62.01-27.82-62.01-62.01s27.82-62.01,62.01-62.01,62.01,27.82,62.01,62.01-27.82,62.01-62.01,62.01Z" fill="#171c4c"/></svg>