<svg xmlns="http://www.w3.org/2000/svg" viewBox="0 0 839.67 839.67"><defs><radialGradient id="a" cx="217.87" cy="179.49" r="695.69" fx="217.87" fy="179.49" gradientUnits="userSpaceOnUse"><stop offset="0" stop-color="#fff"/><stop offset="1" stop-color="#e5def9"/></radialGradient></defs><circle cx="419.84" cy="419.84" r="382.39" fill="url(#a)"/><circle cx="226.57" cy="538.32" r="71.09" fill="#f27497"/><circle cx="437.1" cy="538.32" r="71.09" fill="#66c7c0"/><circle cx="647.63" cy="538.32" r="71.09" fill="#fc7"/><path fill="#171c4c" d="M419.84 51.4c49.76 0 98.01 9.73 143.4 28.93a368.6 368.6 0 0 1 62.56 33.96 371 371 0 0 1 54.56 45.02 371.4 371.4 0 0 1 45.02 54.56 368 368 0 0 1 33.96 62.56c19.2 45.39 28.93 93.64 28.93 143.4s-9.73 98.01-28.93 143.4a368.6 368.6 0 0 1-33.96 62.56 371 371 0 0 1-45.02 54.56 371.4 371.4 0 0 1-54.56 45.02 368 368 0 0 1-62.56 33.96c-45.39 19.2-93.64 28.93-143.4 28.93s-98.01-9.73-143.4-28.93a368.6 368.6 0 0 1-62.56-33.96 371 371 0 0 1-54.56-45.02 371.4 371.4 0 0 1-45.02-54.56 368 368 0 0 1-33.96-62.56c-19.2-45.39-28.93-93.64-28.93-143.4s9.73-98.01 28.93-143.4a368.6 368.6 0 0 1 33.96-62.56 371 371 0 0 1 45.02-54.56 371.4 371.4 0 0 1 54.56-45.02 368 368 0 0 1 62.56-33.96c45.39-19.2 93.64-28.93 143.4-28.93m0-51.4C187.97 0 0 187.97 0 419.84s187.97 419.84 419.84 419.84 419.84-187.97 419.84-419.84S651.71 0 419.84 0"/><path fill="#171c4c" d="M209.31 601.23c-44.2 0-80.17-35.96-80.17-80.17s35.96-80.17 80.17-80.17 80.17 35.96 80.17 80.17-35.96 80.17-80.17 80.17m0-142.18c-34.19 0-62.01 27.82-62.01 62.01s27.82 62.01 62.01 62.01 62.01-27.82 62.01-62.01-27.82-62.01-62.01-62.01M419.84 601.23c-44.2 0-80.17-35.96-80.17-80.17s35.96-80.17 80.17-80.17 80.17 35.96 80.17 80.17-35.96 80.17-80.17 80.17m0-142.18c-34.19 0-62.01 27.82-62.01 62.01s27.82 62.01 62.01 62.01 62.01-27.82 62.01-62.01-27.82-62.01-62.01-62.01M630.37 601.23c-44.2 0-80.17-35.96-80.17-80.17s35.96-80.17 80.17-80.17 80.17 35.96 80.17 80.17-35.96 80.17-80.17 80.17m0-142.18c-34.19 0-62.01 27.82-62.01 62.01s27.82 62.01 62.01 62.01 62.01-27.82 62.01-62.01-27.82-62.01-62.01-62.01"/></svg>