<svg xmlns="http://www.w3.org/2000/svg" viewBox="0 0 3314.82 839.67"><defs><radialGradient id="a" cx="217.87" cy="179.49" r="695.69" fx="217.87" fy="179.49" gradientUnits="userSpaceOnUse"><stop offset="0" stop-color="#fff"/><stop offset="1" stop-color="#e5def9"/></radialGradient></defs><path fill="#171c4c" d="M1075.93 335.22c29.35-30.61 66.05-45.92 110.09-45.92 21.39 0 41.41 4.09 60.08 12.27 18.66 8.18 35.01 19.4 49.07 33.66q21.075 21.39 33.03 50.01c7.96 19.09 11.95 39.53 11.95 61.34s-3.88 42.26-11.64 61.34c-7.77 19.09-18.56 35.76-32.4 50.01-13.84 14.26-30.2 25.48-49.07 33.66s-39.22 12.27-61.02 12.27-42.68-4.09-61.34-12.27c-18.67-8.18-34.92-19.39-48.75-33.66q-20.76-21.375-32.4-50.01c-7.77-19.08-11.64-39.52-11.64-61.34 0-44.45 14.68-81.56 44.04-111.35Zm110.09 6.92c-29.36 0-52.95 9.65-70.77 28.94-17.83 19.29-26.74 44.46-26.74 75.49s8.91 56.21 26.74 75.49c17.82 19.29 41.41 28.94 70.77 28.94s53.47-9.75 71.09-29.25c17.61-19.5 26.42-44.56 26.42-75.18s-8.81-55.67-26.42-75.18c-17.62-19.5-41.31-29.25-71.09-29.25M1409.34 295.59h108.83c46.55 0 79.89 6.92 100.03 20.76 18.03 12.17 29.46 26.74 34.29 43.72 4.82 16.99 7.23 39.32 7.23 67v170.48h-55.36V427.7c0-7.55-.22-13.94-.63-19.19-.42-5.24-1.89-11.95-4.4-20.13s-6.08-14.88-10.69-20.13c-4.62-5.24-11.32-9.85-20.13-13.84-8.81-3.98-19.5-5.98-32.08-5.98h-71.72v249.12h-55.36V295.59ZM1883.04 289.3c71.29 2.94 106.94 32.51 106.94 88.7 0 70.04-45.92 105.06-137.77 105.06h-25.79v-48.44h30.2q42.135 0 58.5-12.9c10.9-8.59 16.36-22.96 16.36-43.09 0-12.99-4.83-22.75-14.47-29.25-9.65-6.5-22.02-9.75-37.12-9.75-29.78 0-53.16 10.49-70.14 31.45-16.99 20.98-25.48 46.14-25.48 75.49 0 31.04 9.12 56.21 27.37 75.49 18.24 19.29 42.04 28.94 71.4 28.94q39.63 0 64.8-19.5l37.75 37.12c-28.94 23.49-63.12 35.23-102.54 35.23-47.81 0-85.98-14.05-114.49-42.15-28.53-28.09-42.78-64.37-42.78-108.83 0-49.48 14.05-89.54 42.15-120.16 28.09-30.61 66.47-45.08 115.12-43.41ZM2056.03 295.59h277.43c29.77 0 53.47 5.66 71.09 16.99 18.03 11.32 29.88 26.01 35.54 44.04 5.66 18.04 8.49 39.63 8.49 64.8v176.14h-55.36V421.42c0-32.71-9.86-54.31-29.57-64.8-10.07-5.45-30.41-8.18-61.02-8.18h-25.79v249.12h-55.36V348.44h-110.09v249.12h-55.36V295.6ZM2671.9 289.3c71.29 2.94 106.94 32.51 106.94 88.7 0 70.04-45.92 105.06-137.77 105.06h-25.79v-48.44h30.2q42.135 0 58.5-12.9c10.9-8.59 16.36-22.96 16.36-43.09 0-12.99-4.83-22.75-14.47-29.25-9.65-6.5-22.02-9.75-37.12-9.75-29.78 0-53.16 10.49-70.14 31.45-16.99 20.98-25.48 46.14-25.48 75.49 0 31.04 9.12 56.21 27.37 75.49 18.24 19.29 42.04 28.94 71.4 28.94q39.63 0 64.8-19.5l37.75 37.12c-28.94 23.49-63.12 35.23-102.54 35.23-47.81 0-85.98-14.05-114.49-42.15-28.53-28.09-42.78-64.37-42.78-108.83 0-49.48 14.05-89.54 42.15-120.16 28.09-30.61 66.47-45.08 115.12-43.41ZM2810.3 348.43l112.61-112.61v59.76h84.93v52.84h-84.93v129.59c0 14.69 2.41 26.84 7.23 36.49s11.84 16.46 21.07 20.45c9.22 3.99 17.93 6.61 26.11 7.86 8.18 1.26 18.34 1.89 30.51 1.89v52.84c-48.23 0-83.88-9.22-106.94-27.68-23.07-18.45-34.6-49.07-34.6-91.85V348.42h-55.99ZM3235.55 420.15v56.62c-15.94-12.16-35.45-18.24-58.51-18.24-19.72 0-35.02 3.88-45.92 11.64-10.91 7.77-16.36 18.77-16.36 33.03 0 27.68 20.54 41.52 61.65 41.52h83.04V424.56c0-50.74-24.75-76.12-74.23-76.12h-100.65V295.6h103.8c40.67 0 71.92 10.07 93.73 30.2 21.8 20.13 32.71 49.07 32.71 86.81v184.95h-140.29c-35.65 0-63.96-7.96-84.93-23.91-20.98-15.93-31.46-39.21-31.46-69.83s11.11-53.89 33.34-69.83c22.22-15.93 50.11-23.91 83.67-23.91 18.87 0 39 3.36 60.39 10.07Z"/><circle cx="419.84" cy="419.84" r="382.39" fill="url(#a)"/><circle cx="226.57" cy="538.32" r="71.09" fill="#f27497"/><circle cx="437.1" cy="538.32" r="71.09" fill="#66c7c0"/><circle cx="647.63" cy="538.32" r="71.09" fill="#fc7"/><path fill="#171c4c" d="M419.84 51.4c49.76 0 98.01 9.73 143.4 28.93a368.6 368.6 0 0 1 62.56 33.96 371 371 0 0 1 54.56 45.02 371.4 371.4 0 0 1 45.02 54.56 368 368 0 0 1 33.96 62.56c19.2 45.39 28.93 93.64 28.93 143.4s-9.73 98.01-28.93 143.4a368.6 368.6 0 0 1-33.96 62.56 371 371 0 0 1-45.02 54.56 371.4 371.4 0 0 1-54.56 45.02 368 368 0 0 1-62.56 33.96c-45.39 19.2-93.64 28.93-143.4 28.93s-98.01-9.73-143.4-28.93a368.6 368.6 0 0 1-62.56-33.96 371 371 0 0 1-54.56-45.02 371.4 371.4 0 0 1-45.02-54.56 368 368 0 0 1-33.96-62.56c-19.2-45.39-28.93-93.64-28.93-143.4s9.73-98.01 28.93-143.4a368.6 368.6 0 0 1 33.96-62.56 371 371 0 0 1 45.02-54.56 371.4 371.4 0 0 1 54.56-45.02 368 368 0 0 1 62.56-33.96c45.39-19.2 93.64-28.93 143.4-28.93m0-51.4C187.97 0 0 187.97 0 419.84s187.97 419.84 419.84 419.84 419.84-187.97 419.84-419.84S651.71 0 419.84 0"/><path fill="#171c4c" d="M209.31 601.23c-44.2 0-80.17-35.96-80.17-80.17s35.96-80.17 80.17-80.17 80.17 35.96 80.17 80.17-35.96 80.17-80.17 80.17m0-142.18c-34.19 0-62.01 27.82-62.01 62.01s27.82 62.01 62.01 62.01 62.01-27.82 62.01-62.01-27.82-62.01-62.01-62.01M419.84 601.23c-44.2 0-80.17-35.96-80.17-80.17s35.96-80.17 80.17-80.17 80.17 35.96 80.17 80.17-35.96 80.17-80.17 80.17m0-142.18c-34.19 0-62.01 27.82-62.01 62.01s27.82 62.01 62.01 62.01 62.01-27.82 62.01-62.01-27.82-62.01-62.01-62.01M630.37 601.23c-44.2 0-80.17-35.96-80.17-80.17s35.96-80.17 80.17-80.17 80.17 35.96 80.17 80.17-35.96 80.17-80.17 80.17m0-142.18c-34.19 0-62.01 27.82-62.01 62.01s27.82 62.01 62.01 62.01 62.01-27.82 62.01-62.01-27.82-62.01-62.01-62.01"/></svg>